Coordinates
version=1
nRows=10
nColumns=44
inDegrees=yes

Units are S.I. units (second, meters, Newtons, ...)
Angles are in degrees.

endheader
time	pelvis_tilt	pelvis_list	pelvis_rotation	pelvis_tx	pelvis_ty	pelvis_tz	hip_flexion_r	hip_adduction_r	hip_rotation_r	knee_angle_r	knee_adduction_r	knee_rotation_r	knee_angle_r_beta	ankle_angle_r	ankle_adduction_r	ankle_rotation_r	hip_flexion_l	hip_adduction_l	hip_rotation_l	knee_angle_l	knee_adduction_l	knee_rotation_l	knee_angle_l_beta	ankle_angle_l	ankle_adduction_l	ankle_rotation_l	lumbar_extension	lumbar_bending	lumbar_rotation	arm_flex_r	arm_add_r	arm_rot_r	elbow_flex_r	pro_sup_r	wrist_flex_r	wrist_dev_r	arm_flex_l	arm_add_l	arm_rot_l	elbow_flex_l	pro_sup_l	wrist_flex_l	wrist_dev_l
      0.09500000	    -12.30718409	      3.09387693	     -4.92209011	      0.49269440	      0.96312138	     -0.00120903	     -8.42848386	     -0.06163243	      0.24124148	     47.91956832	     -2.90937558	     -3.16793744	      0.83635424	    -31.90886417	      9.15269628	     -3.63460779	     36.68328066	     -0.52561762	     -5.72507507	     14.08243370	      2.11224699	     -2.67484944	      0.24578483	     -4.42609214	      9.69973904	      3.46849309	      1.59000404	     -4.33742807	     18.58252647	     -5.63815930	    -17.43668104	     22.06905724	    119.48686829	     25.18217460	      0.00000000	      0.00000000	    -35.69582617	    -18.02768128	     -6.54612191	    118.35218218	     30.48948568	      0.00000000	      0.00000000
      0.10000000	    -11.76972698	      3.01018019	     -4.67641463	      0.50972557	      0.96086840	     -0.00182792	     -8.16948551	     -0.10759528	     -0.05361757	     50.21412524	     -2.94494996	     -3.37034584	      0.87640182	    -32.07090104	      9.21683340	     -3.99191180	     36.08924471	     -0.27837568	     -5.77747423	     14.79576250	      2.15474723	     -2.97917298	      0.25823477	     -4.32152709	      9.85168118	      3.34020738	      0.78709321	     -4.39008072	     18.28485813	     -5.80839383	    -17.57389219	     21.88806728	    118.65139944	     25.19322305	      0.00000000	      0.00000000	    -34.83066457	    -17.78364705	     -6.47015244	    118.30008879	     30.49731832	      0.00000000	      0.00000000
      0.10500000	    -11.80375643	      3.19538062	     -4.66464741	      0.52662557	      0.95757960	     -0.00226172	     -6.99427945	     -0.47944184	     -0.31937147	     52.95740146	     -3.08689941	     -3.29746892	      0.92428102	    -31.33727784	      8.94964622	     -4.17400190	     36.11871696	      0.02097863	     -5.86155740	     15.68526836	      2.17903011	     -3.75381093	      0.27375958	     -3.86024105	     10.31030044	      3.53486051	      0.77085399	     -4.62378564	     18.28970725	     -6.16574334	    -17.43889910	     21.56871159	    117.31054180	     25.30881231	      0.00000000	      0.00000000	    -34.00791016	    -17.57808314	     -6.33188106	    117.81158694	     30.48474317	      0.00000000	      0.00000000
      0.11000000	    -11.39900375	      3.28887653	     -4.42418795	      0.54334791	      0.95486940	     -0.00279658	     -6.43365917	     -0.70465273	     -0.53789959	     55.36511802	     -3.08873888	     -3.33470282	      0.96630360	    -31.52794140	      8.96901249	     -4.57444992	     35.76293386	      0.36699387	     -5.82682859	     16.74320651	      2.31341281	     -3.86525685	      0.29222408	     -4.36987573	     10.36978618	      3.44607467	      0.09881682	     -4.90221016	     18.01821718	     -6.41458413	    -17.52597947	     21.32516097	    116.42266127	     25.31678038	      0.00000000	      0.00000000	    -33.05586068	    -17.34631972	     -6.21650422	    117.67967553	     30.48204785	      0.00000000	      0.00000000
      0.11500000	    -11.68315759	      3.80031012	     -4.34483679	      0.55989290	      0.95098660	     -0.00339653	     -4.84925049	     -1.52262476	     -0.76930985	     58.18387945	     -3.09625509	     -3.08507514	      1.01550027	    -30.77566378	      8.89018521	     -4.82089738	     36.22575951	      1.06963878	     -6.47004689	     17.93386449	      2.05025238	     -4.13368345	      0.31300498	     -5.97973218	     10.17652599	      3.79396456	      0.36564572	     -5.50785309	     17.96570203	     -6.87854175	    -17.21852520	     20.82273533	    114.90210059	     25.42725862	      0.00000000	      0.00000000	    -32.12379774	    -17.27357602	     -6.04164820	    116.97398828	     30.44762941	      0.00000000	      0.00000000
      0.12000000	    -11.56748597	      4.11364386	     -4.18524062	      0.57652774	      0.94744973	     -0.00390380	     -3.76200801	     -2.07051757	     -1.04806717	     60.84416311	     -3.14760397	     -2.75378489	      1.06193098	    -29.85409156	      8.53671227	     -5.02054604	     36.24429745	      1.60365888	     -6.81077590	     19.24942562	      1.95956759	     -4.43676905	      0.33596586	     -7.71116784	      9.75352663	      4.10379944	      0.12194135	     -5.93850538	     17.72664578	     -7.19567553	    -17.12692355	     20.48214468	    113.61370191	     25.54107231	      0.00000000	      0.00000000	    -31.14535755	    -17.14742378	     -5.83479866	    116.50951765	     30.44223965	      0.00000000	      0.00000000
      0.12500000	    -11.46756820	      4.53088805	     -4.02432776	      0.59311096	      0.94368677	     -0.00442660	     -2.61297686	     -2.77466838	     -1.35213225	     63.46416606	     -3.24615451	     -2.40776178	      1.10765865	    -29.37708448	      8.34006252	     -5.23328937	     36.30782893	      2.24257512	     -7.44241799	     20.78359538	      1.82595235	     -4.49078596	      0.36274217	     -9.58985122	      8.66495995	      4.27316550	     -0.12684933	     -6.51820647	     17.47107138	     -7.49646568	    -16.96986389	     20.09229861	    112.26949887	     25.65332582	      0.00000000	      0.00000000	    -30.13596666	    -17.04114096	     -5.65323065	    116.02193971	     30.43964677	      0.00000000	      0.00000000
      0.13000001	    -11.39371212	      4.96478951	     -3.89008761	      0.60939204	      0.93967837	     -0.00472289	     -1.38801843	     -3.49620570	     -1.41412925	     66.10509802	     -3.16987965	     -1.88649454	      1.15375161	    -28.64025804	      8.14921016	     -5.64056867	     36.54931266	      2.85377734	     -8.46069533	     22.74225883	      1.62537359	     -4.30211011	      0.39692730	    -10.67526610	      4.16288842	      5.05944175	     -0.37923602	     -7.12446655	     17.19981014	     -7.78244885	    -16.84407053	     19.76696930	    111.03369253	     26.00884479	      0.00000000	      0.00000000	    -29.10197590	    -16.96501487	     -5.50468541	    115.73203361	     30.55734591	      0.00000000	      0.00000000
      0.13500001	    -10.81762722	      5.38975387	     -3.58558979	      0.62567900	      0.93642896	     -0.00530189	     -0.80308258	     -4.23998695	     -1.63232301	     68.45065059	     -3.16627878	     -1.80264732	      1.19468923	    -28.69525206	      8.14895474	     -5.71971794	     36.11390674	      3.56355554	     -8.35061472	     24.71140624	      1.93738175	     -4.07103506	      0.43129540	    -10.57545945	      3.64676245	      5.03905068	     -1.31532084	     -7.76706960	     16.60828016	     -7.82670579	    -16.91102311	     19.57902567	    109.96545111	     25.98602390	      0.00000000	      0.00000000	    -27.91799913	    -16.82424970	     -5.38459619	    115.41797782	     30.53528399	      0.00000000	      0.00000000
      0.14000000	    -11.01788396	      6.09080717	     -3.47434572	      0.64158731	      0.93182453	     -0.00569783	      0.95919521	     -5.32394907	     -1.80949583	     71.30405679	     -3.32358442	     -1.23728643	      1.24449056	    -27.37566852	      8.11112179	     -5.50433342	     36.89618472	      4.44587135	    -10.31276634	     27.53631864	      1.79595870	     -0.60594679	      0.48059942	     -6.97367314	     -4.25002625	      2.67290162	     -1.24259180	     -8.64339447	     16.24700230	     -8.02772690	    -16.55067889	     19.18994605	    108.13735806	     26.75218396	      0.00000000	      0.00000000	    -26.81494371	    -16.81647972	     -5.03900090	    114.72646774	     30.80340004	      0.00000000	      0.00000000
